<?xml version="1.0" standalone="no"?>
<!DOCTYPE svg PUBLIC "-//W3C//DTD SVG 20010904//EN"
 "http://www.w3.org/TR/2001/REC-SVG-20010904/DTD/svg10.dtd">
<svg version="1.0" xmlns="http://www.w3.org/2000/svg"
 width="260.000000pt" height="260.000000pt" viewBox="0 0 260.000000 260.000000"
 preserveAspectRatio="xMidYMid meet">
<metadata>
Created by potrace 1.11, written by Peter Selinger 2001-2013
</metadata>
<g transform="translate(0.000000,260.000000) scale(0.100000,-0.100000)"
fill="#000000" stroke="none">
<path d="M1330 2587 c-33 -17 -52 -58 -52 -115 0 -58 8 -128 17 -142 7 -11 16
-53 19 -85 1 -11 8 -30 14 -42 7 -13 10 -23 7 -23 -3 0 3 -17 13 -37 20 -40
18 -68 -9 -111 -26 -41 -54 -28 -95 46 -41 74 -43 87 -25 237 13 113 6 223
-16 247 -10 11 -30 18 -53 18 -40 0 -129 -24 -172 -46 -15 -8 -31 -14 -34 -13
-4 0 -10 -4 -13 -9 -18 -28 -119 -77 -171 -83 -81 -9 -172 -51 -229 -103 -29
-27 -111 -137 -111 -150 0 -2 -10 -26 -22 -53 -11 -26 -22 -54 -24 -62 -10
-53 -21 -71 -67 -116 -77 -74 -125 -138 -119 -157 1 -5 -3 -8 -8 -8 -5 0 -9
-3 -8 -7 0 -5 -2 -15 -5 -23 -33 -79 -57 -159 -57 -189 -1 -20 -7 -63 -15 -96
-20 -81 -19 -100 7 -127 19 -19 32 -23 81 -21 45 2 59 -2 64 -14 9 -22 -25
-44 -62 -40 -35 5 -100 -25 -114 -51 -6 -11 -8 -30 -4 -43 8 -38 46 -132 63
-159 9 -14 24 -42 34 -63 10 -21 60 -80 112 -131 87 -86 95 -97 99 -137 12
-129 39 -182 133 -270 77 -71 135 -104 202 -114 24 -4 58 -12 75 -19 19 -8 39
-10 53 -5 39 14 76 17 97 5 11 -5 23 -11 28 -12 4 -1 10 -3 15 -4 20 -7 119
-5 135 2 21 11 72 -35 61 -54 -7 -11 -13 -42 -16 -75 -1 -7 -5 -13 -9 -13 -9
0 -24 -59 -20 -79 6 -31 27 -36 149 -35 108 1 125 4 137 20 8 11 12 28 9 39
-3 11 -8 56 -11 101 -5 76 -4 82 17 97 15 10 29 13 39 8 26 -13 153 -5 206 14
28 9 75 31 105 47 30 17 75 32 100 34 90 8 125 14 128 24 2 6 12 10 23 10 10
0 19 4 19 9 0 5 11 12 25 15 14 4 25 11 25 16 0 6 4 10 9 10 12 0 57 45 94 94
30 38 81 170 74 190 -7 19 22 64 70 109 64 59 140 176 169 260 13 39 24 79 24
88 0 40 -60 135 -88 140 -28 5 -53 9 -91 12 -26 3 -48 11 -53 20 -12 23 16 34
80 31 39 -1 58 3 77 18 36 28 55 69 50 109 -3 19 -6 53 -8 76 -2 23 -12 53
-21 67 -9 14 -16 31 -16 38 0 13 -58 115 -82 144 -7 8 -36 41 -65 72 -58 63
-64 74 -124 215 -23 54 -48 104 -55 112 -8 7 -14 16 -14 20 0 20 -95 102 -152
131 -61 31 -76 34 -151 34 -81 0 -84 1 -152 44 -100 64 -187 104 -242 111 -27
4 -55 8 -63 11 -8 2 -26 -2 -40 -9z m141 -103 c8 -6 21 -13 29 -16 37 -14 100
-69 97 -86 -1 -9 -30 -45 -63 -78 -77 -77 -102 -80 -123 -14 -8 25 -18 48 -23
51 -5 3 -12 31 -15 62 -5 51 -3 59 17 75 25 20 60 23 81 6z m-316 -34 c5 -8
10 -41 10 -73 0 -47 -4 -62 -22 -79 -15 -14 -29 -19 -45 -14 -30 7 -118 93
-118 115 0 25 15 42 38 44 12 1 22 5 22 9 0 4 9 8 20 8 11 0 20 5 20 11 0 5 4
8 9 4 5 -3 13 -1 16 5 7 12 33 -3 50 -30z m753 -122 c6 -1 12 -5 12 -10 0 -4
5 -8 11 -8 6 0 16 -6 24 -12 11 -11 42 -35 84 -68 4 -3 26 -34 49 -69 42 -64
53 -100 30 -102 -44 -5 -94 -4 -103 2 -5 3 -26 9 -46 13 -43 8 -60 25 -89 91
-12 28 -30 68 -41 91 -10 23 -19 45 -19 49 0 15 35 33 55 28 11 -2 26 -5 33
-5z m-1210 -21 c12 -14 7 -64 -9 -83 -5 -7 -12 -29 -15 -50 -6 -48 -26 -69
-90 -93 -54 -21 -70 -18 -75 16 -5 28 72 143 125 188 46 39 49 40 64 22z m239
-30 c41 -30 143 -136 143 -148 0 -17 -60 -129 -70 -130 -6 -1 -16 -2 -22 -3
-7 -1 -35 7 -63 17 -27 10 -63 23 -80 29 -40 14 -75 47 -75 71 0 32 68 151 98
169 34 22 32 22 69 -5z m806 -30 c9 -12 20 -32 23 -44 3 -13 10 -23 15 -23 5
0 9 -9 9 -19 0 -11 4 -22 9 -25 20 -13 -5 -76 -30 -76 -10 0 -19 -4 -19 -10 0
-5 -4 -10 -9 -10 -5 0 -22 -5 -38 -12 -15 -6 -31 -11 -34 -10 -4 1 -15 -8 -24
-18 -25 -27 -59 -25 -89 5 -50 50 -62 85 -41 124 18 35 111 130 138 141 31 13
69 3 90 -23z m-528 -305 c33 -72 32 -109 -3 -151 -21 -26 -33 -32 -49 -27 -11
4 -24 14 -27 24 -3 9 -17 35 -31 57 -14 22 -28 45 -31 52 -7 14 30 86 58 113
20 18 23 19 40 3 10 -9 29 -41 43 -71z m-570 18 c11 -33 -20 -74 -77 -102 -60
-30 -83 -25 -90 19 -6 46 0 57 54 90 43 26 56 29 79 21 16 -5 31 -18 34 -28z
m162 -12 c15 -6 31 -11 34 -10 4 1 17 -10 30 -24 24 -25 24 -26 5 -40 -14 -10
-22 -11 -27 -3 -3 6 -9 10 -13 10 -24 -3 -38 2 -62 24 -22 21 -25 27 -14 40
15 18 12 18 47 3z m1270 -12 c63 -30 77 -52 58 -90 -8 -14 -14 -28 -14 -29 0
-1 -5 -16 -11 -34 -16 -45 -36 -48 -83 -11 -87 67 -110 99 -96 135 5 13 5 23
1 23 -4 1 4 7 18 15 36 20 68 18 127 -9z m-614 -13 c18 -36 15 -80 -9 -122
-25 -43 -35 -47 -64 -23 -32 26 -32 97 -1 141 28 38 56 40 74 4z m354 -2 c16
-26 -5 -44 -56 -46 -21 -1 -42 -5 -48 -8 -13 -8 -26 20 -17 35 9 14 64 37 89
38 11 0 26 -9 32 -19z m461 -95 c24 -14 130 -184 137 -218 4 -18 10 -37 14
-43 31 -43 -26 -104 -104 -113 -57 -6 -96 10 -120 51 -10 18 -23 35 -28 38
-14 10 -14 128 0 137 16 10 33 57 33 90 0 32 24 71 42 68 7 -1 19 -5 26 -10z
m-1906 -68 c4 -38 -10 -88 -23 -88 -5 0 -9 -5 -9 -10 0 -6 -9 -30 -21 -54 -11
-24 -21 -59 -21 -78 0 -39 -22 -78 -44 -78 -23 0 -41 23 -37 45 2 11 6 35 9
54 2 19 8 39 11 44 4 6 8 22 9 36 2 13 7 27 11 30 4 3 17 24 28 46 25 49 55
85 71 85 7 0 14 -15 16 -32z m296 13 c12 -10 28 -33 36 -52 12 -28 12 -38 1
-59 -24 -45 -92 -86 -126 -75 -22 7 -63 72 -65 103 -1 31 45 67 132 102 1 0
11 -8 22 -19z m383 -12 c10 -12 21 -30 24 -40 4 -11 11 -19 16 -19 5 0 9 -7 9
-15 0 -8 5 -15 10 -15 23 0 7 -52 -35 -114 -65 -97 -78 -109 -102 -85 -8 8 -3
29 22 78 37 74 44 112 26 156 -29 69 -11 101 30 54z m725 13 c11 -7 11 -38 0
-49 -9 -10 -56 7 -56 20 0 28 33 45 56 29z m-219 -23 c9 -9 7 -21 -8 -50 -26
-51 -24 -95 7 -157 20 -41 23 -55 14 -71 -22 -42 -46 -25 -91 65 -29 59 -29
65 3 129 48 100 54 105 75 84z m419 -60 c47 -44 49 -57 14 -94 -33 -34 -59
-39 -95 -16 -25 16 -50 64 -35 69 6 2 7 8 4 14 -10 16 33 54 61 53 14 -1 37
-12 51 -26z m-645 -31 c11 -22 22 -49 24 -59 5 -24 -48 -81 -68 -73 -17 6 -47
73 -47 102 0 28 23 71 40 75 22 5 28 0 51 -45z m-407 16 c20 -20 20 -53 0 -82
-18 -26 -30 -28 -50 -7 -25 24 -26 59 -3 83 24 26 32 27 53 6z m774 -52 c2
-13 -5 -25 -19 -33 -20 -10 -25 -9 -41 11 -17 21 -17 24 -2 41 20 22 58 11 62
-19z m-1241 -68 c6 -17 -6 -45 -23 -51 -5 -2 -18 3 -28 10 -15 11 -17 17 -7
35 14 26 49 29 58 6z m331 -44 c-3 -21 -7 -25 -33 -22 -57 6 -70 43 -22 61 31
12 58 -8 55 -39z m1029 -14 c-4 -9 -16 -16 -27 -16 -29 0 -38 30 -15 47 16 11
21 11 33 -1 8 -8 12 -22 9 -30z m-625 -33 c10 -9 18 -23 18 -32 0 -9 6 -25 14
-36 30 -44 39 -94 26 -143 -7 -26 -17 -53 -23 -59 -15 -20 -44 -15 -62 10 -9
12 -34 46 -55 76 -42 58 -50 91 -25 111 8 7 15 16 15 21 0 13 52 69 63 69 6 0
19 -7 29 -17z m-559 -32 c85 -39 116 -43 179 -25 l51 16 28 -29 c47 -47 30
-55 -117 -57 -113 -1 -133 -4 -159 -22 -44 -30 -118 -64 -142 -64 -27 0 -87
41 -91 63 -6 31 25 64 95 101 79 41 98 43 156 17z m811 -14 c42 -55 47 -78 25
-126 -25 -56 -53 -91 -67 -82 -21 13 -33 66 -31 141 2 106 26 128 73 67z m595
3 c10 -5 31 -11 46 -14 16 -3 36 -12 44 -21 14 -13 14 -17 0 -30 -8 -9 -24
-17 -35 -19 -12 -2 -38 -14 -60 -25 -49 -27 -70 -26 -114 1 -28 18 -50 22
-115 22 -44 0 -94 -4 -111 -8 -55 -14 -84 43 -31 60 12 4 63 8 112 9 60 1 100
6 120 17 34 18 117 23 144 8z m352 -171 c52 -36 68 -75 47 -113 -7 -11 -13
-23 -13 -26 -1 -3 -7 -18 -13 -33 -7 -16 -12 -31 -12 -34 0 -16 -113 -141
-125 -139 -23 3 -35 19 -38 51 -2 17 -13 51 -25 77 -12 26 -22 59 -22 74 0 36
60 162 80 168 27 8 94 -6 121 -25z m-559 -22 c8 -16 7 -23 -6 -33 -35 -25 -95
12 -74 45 14 23 65 15 80 -12z m-1007 -11 c15 -25 -36 -69 -67 -57 -46 17 -50
64 -6 80 28 10 58 0 73 -23z m758 -113 c4 -91 2 -111 -12 -125 -25 -27 -58
-12 -88 39 l-26 44 44 84 c36 70 46 82 60 75 13 -8 17 -30 22 -117z m-1268 43
c8 -8 15 -17 15 -21 0 -3 9 -15 20 -27 19 -21 23 -39 22 -98 -2 -45 -8 -64
-29 -77 -18 -12 -23 -12 -37 3 -29 28 -97 134 -101 156 -3 12 -8 24 -12 27 -5
3 -9 16 -11 28 -2 15 5 26 25 36 24 13 33 13 61 1 18 -7 39 -20 47 -28z m1700
-7 c44 -39 45 -66 2 -100 -75 -60 -105 -59 -141 3 -15 25 -16 34 -6 52 11 21
85 76 102 76 4 0 23 -14 43 -31z m-1059 13 c35 -23 37 -81 2 -109 -19 -16 -68
25 -68 57 0 41 38 71 66 52z m172 -50 c31 -55 34 -75 17 -122 -22 -62 -43 -89
-66 -83 -26 7 -59 55 -41 61 7 2 9 8 6 13 -3 6 1 21 10 34 10 15 16 46 16 78
0 82 20 88 58 19z m570 9 c5 -33 -14 -50 -33 -30 -9 8 -17 25 -20 38 -3 19 0
22 23 19 20 -2 28 -9 30 -27z m-1018 -21 c24 -23 30 -36 24 -53 -13 -42 -43
-95 -58 -100 -14 -5 -115 65 -117 81 0 4 -2 15 -4 25 -4 22 68 77 101 77 13 0
37 -14 54 -30z m654 -3 c34 -25 22 -127 -16 -127 -26 0 -61 56 -54 86 13 49
38 64 70 41z m791 -97 c14 -5 24 -13 21 -18 -2 -4 4 -25 14 -47 35 -72 21
-103 -63 -144 -84 -41 -102 -42 -131 -12 -26 28 -38 84 -22 110 4 6 31 26 59
45 29 18 61 43 71 55 22 25 18 24 51 11z m-1272 -44 c15 -22 15 -25 -1 -39
-38 -33 -82 -24 -82 16 0 49 56 64 83 23z m873 -57 c16 -7 42 -13 57 -15 59
-6 87 -63 48 -98 -15 -13 -24 -15 -47 -6 -126 47 -162 82 -123 121 11 11 23
17 28 15 4 -3 21 -11 37 -17z m-1157 -38 c64 -44 73 -57 59 -83 -10 -21 -29
-22 -77 -6 -60 20 -101 55 -101 87 0 60 32 61 119 2z m846 43 c8 -4 22 -19 30
-35 14 -26 13 -30 -9 -56 -20 -23 -28 -26 -43 -17 -23 14 -28 48 -13 85 14 32
12 31 35 23z m-185 -54 c27 -27 34 -64 19 -100 -22 -49 -64 -51 -90 -4 -17 32
-14 68 8 99 22 30 37 31 63 5z m-265 -29 c16 -19 16 -21 -10 -45 -16 -15 -32
-27 -36 -27 -13 -2 -29 -6 -31 -9 -5 -3 -43 -10 -68 -12 -96 -5 -102 66 -7 91
101 26 129 26 152 2z m646 -78 c17 -13 95 -48 129 -58 100 -28 121 -63 82
-140 -14 -27 -34 -58 -45 -67 -23 -20 -67 -24 -67 -6 0 6 -3 8 -6 5 -6 -6 -81
29 -94 44 -3 3 -22 15 -42 28 -20 12 -48 36 -62 52 -28 33 -26 45 21 122 24
39 53 46 84 20z m-983 -106 c17 -14 40 -58 46 -89 2 -14 16 -48 30 -76 25 -50
26 -82 3 -78 -30 4 -107 59 -147 103 -23 26 -54 71 -68 100 -25 50 -25 53 -8
72 18 20 18 20 75 -1 31 -11 62 -25 69 -31z m1510 44 c11 -7 11 -14 -2 -42
-20 -45 -31 -57 -95 -108 -77 -60 -109 -75 -127 -60 -20 17 -17 50 10 109 27
58 49 79 86 80 14 1 41 8 60 15 42 16 51 17 68 6z m-1050 -43 c18 -23 32 -49
32 -58 0 -22 -105 -122 -156 -148 -53 -27 -76 -20 -127 36 -65 69 -81 101 -67
128 15 28 51 44 98 44 20 1 60 9 87 19 80 29 96 27 133 -21z m248 -18 c0 -18
-22 -66 -35 -74 -5 -4 -16 -3 -25 0 -37 14 -3 98 37 92 12 -2 22 -10 23 -18z
m172 -140 c12 -11 25 -20 30 -20 4 0 23 -14 41 -32 32 -31 32 -33 13 -48 -40
-33 -157 -3 -164 42 -5 29 22 78 42 78 9 0 26 -9 38 -20z m-344 -95 c-7 -18
-40 -25 -53 -12 -29 29 11 68 41 40 9 -8 14 -21 12 -28z"/>
</g>
</svg>
